<svg width="429" height="109" viewBox="0 0 429 109" fill="none" xmlns="http://www.w3.org/2000/svg">
<path d="M0.740234 13.1058C0.740234 6.74034 5.79449 1.70721 12.1866 1.70721C18.5788 1.70721 23.6331 6.74034 23.6331 13.1058V43.6006H65.851V13.1058C65.851 6.74034 70.9052 1.70721 77.2974 1.70721C83.6895 1.70721 88.7438 6.74034 88.7438 13.1058V95.7083C88.7438 102.074 83.6895 107.107 77.2974 107.107C70.9052 107.107 65.851 102.074 65.851 95.7083V64.6213H23.6331V95.7083C23.6331 102.074 18.5788 107.107 12.1866 107.107C5.79449 107.107 0.740234 102.074 0.740234 95.7083V13.1058Z" fill="#F5D95B"/>
<path d="M0.740234 13.1058C0.740234 6.74034 5.79449 1.70721 12.1866 1.70721C18.5788 1.70721 23.6331 6.74034 23.6331 13.1058V43.6006H65.851V13.1058C65.851 6.74034 70.9052 1.70721 77.2974 1.70721C83.6895 1.70721 88.7438 6.74034 88.7438 13.1058V95.7083C88.7438 102.074 83.6895 107.107 77.2974 107.107C70.9052 107.107 65.851 102.074 65.851 95.7083V64.6213H23.6331V95.7083C23.6331 102.074 18.5788 107.107 12.1866 107.107C5.79449 107.107 0.740234 102.074 0.740234 95.7083V13.1058Z" fill="#F66C5E"/>
<path d="M0.740234 13.1058C0.740234 6.74034 5.79449 1.70721 12.1866 1.70721C18.5788 1.70721 23.6331 6.74034 23.6331 13.1058V43.6006H65.851V13.1058C65.851 6.74034 70.9052 1.70721 77.2974 1.70721C83.6895 1.70721 88.7438 6.74034 88.7438 13.1058V95.7083C88.7438 102.074 83.6895 107.107 77.2974 107.107C70.9052 107.107 65.851 102.074 65.851 95.7083V64.6213H23.6331V95.7083C23.6331 102.074 18.5788 107.107 12.1866 107.107C5.79449 107.107 0.740234 102.074 0.740234 95.7083V13.1058Z" fill="#F7F9F7"/>
<path d="M0.740234 13.1058C0.740234 6.74034 5.79449 1.70721 12.1866 1.70721C18.5788 1.70721 23.6331 6.74034 23.6331 13.1058V43.6006H65.851V13.1058C65.851 6.74034 70.9052 1.70721 77.2974 1.70721C83.6895 1.70721 88.7438 6.74034 88.7438 13.1058V95.7083C88.7438 102.074 83.6895 107.107 77.2974 107.107C70.9052 107.107 65.851 102.074 65.851 95.7083V64.6213H23.6331V95.7083C23.6331 102.074 18.5788 107.107 12.1866 107.107C5.79449 107.107 0.740234 102.074 0.740234 95.7083V13.1058Z" fill="#4ECDC4"/>
<path d="M0.740234 13.1058C0.740234 6.74034 5.79449 1.70721 12.1866 1.70721C18.5788 1.70721 23.6331 6.74034 23.6331 13.1058V43.6006H65.851V13.1058C65.851 6.74034 70.9052 1.70721 77.2974 1.70721C83.6895 1.70721 88.7438 6.74034 88.7438 13.1058V95.7083C88.7438 102.074 83.6895 107.107 77.2974 107.107C70.9052 107.107 65.851 102.074 65.851 95.7083V64.6213H23.6331V95.7083C23.6331 102.074 18.5788 107.107 12.1866 107.107C5.79449 107.107 0.740234 102.074 0.740234 95.7083V13.1058Z" fill="#23374A"/>
<path d="M112.277 61.969V13.1362C112.277 6.75377 117.325 1.70721 123.709 1.70721C130.093 1.70721 135.14 6.75377 135.14 13.1362V61.3753C135.14 78.2961 143.603 87.0533 157.558 87.0533C171.514 87.0533 179.976 78.5929 179.976 62.1174V13.1362C179.976 6.75377 185.024 1.70721 191.408 1.70721C197.791 1.70721 202.839 6.75377 202.839 13.1362V61.2269C202.839 92.6936 185.172 108.13 157.261 108.13C129.35 108.13 112.277 92.5446 112.277 61.969Z" fill="#F5D95B"/>
<path d="M112.277 61.969V13.1362C112.277 6.75377 117.325 1.70721 123.709 1.70721C130.093 1.70721 135.14 6.75377 135.14 13.1362V61.3753C135.14 78.2961 143.603 87.0533 157.558 87.0533C171.514 87.0533 179.976 78.5929 179.976 62.1174V13.1362C179.976 6.75377 185.024 1.70721 191.408 1.70721C197.791 1.70721 202.839 6.75377 202.839 13.1362V61.2269C202.839 92.6936 185.172 108.13 157.261 108.13C129.35 108.13 112.277 92.5446 112.277 61.969Z" fill="#F66C5E"/>
<path d="M112.277 61.969V13.1362C112.277 6.75377 117.325 1.70721 123.709 1.70721C130.093 1.70721 135.14 6.75377 135.14 13.1362V61.3753C135.14 78.2961 143.603 87.0533 157.558 87.0533C171.514 87.0533 179.976 78.5929 179.976 62.1174V13.1362C179.976 6.75377 185.024 1.70721 191.408 1.70721C197.791 1.70721 202.839 6.75377 202.839 13.1362V61.2269C202.839 92.6936 185.172 108.13 157.261 108.13C129.35 108.13 112.277 92.5446 112.277 61.969Z" fill="#F7F9F7"/>
<path d="M112.277 61.969V13.1362C112.277 6.75377 117.325 1.70721 123.709 1.70721C130.093 1.70721 135.14 6.75377 135.14 13.1362V61.3753C135.14 78.2961 143.603 87.0533 157.558 87.0533C171.514 87.0533 179.976 78.5929 179.976 62.1174V13.1362C179.976 6.75377 185.024 1.70721 191.408 1.70721C197.791 1.70721 202.839 6.75377 202.839 13.1362V61.2269C202.839 92.6936 185.172 108.13 157.261 108.13C129.35 108.13 112.277 92.5446 112.277 61.969Z" fill="#4ECDC4"/>
<path d="M112.277 61.969V13.1362C112.277 6.75377 117.325 1.70721 123.709 1.70721C130.093 1.70721 135.14 6.75377 135.14 13.1362V61.3753C135.14 78.2961 143.603 87.0533 157.558 87.0533C171.514 87.0533 179.976 78.5929 179.976 62.1174V13.1362C179.976 6.75377 185.024 1.70721 191.408 1.70721C197.791 1.70721 202.839 6.75377 202.839 13.1362V61.2269C202.839 92.6936 185.172 108.13 157.261 108.13C129.35 108.13 112.277 92.5446 112.277 61.969Z" fill="#23374A"/>
<path d="M318.214 96.1232C318.214 102.209 313.466 107.107 307.381 107.107C302.039 107.107 298.477 103.99 296.4 99.2402L289.425 82.9132C286.601 76.1846 283.778 69.4555 280.954 62.7269H280.966L280.04 60.5302L266.571 28.4401C262.042 39.1702 257.513 49.901 252.984 60.6311L243.741 82.9132H243.717L236.446 99.9824C234.517 104.435 230.658 107.107 225.909 107.107C219.973 107.107 215.373 102.357 215.373 96.4201C215.373 94.7874 215.967 93.1547 216.709 91.522L252.918 9.73813C255.441 4.09787 260.042 0.684021 266.274 0.684021H267.61C273.843 0.684021 278.295 4.09787 280.818 9.73813L317.027 91.522C317.769 93.1547 318.214 94.639 318.214 96.1232Z" fill="#F5D95B"/>
<path d="M318.214 96.1232C318.214 102.209 313.466 107.107 307.381 107.107C302.039 107.107 298.477 103.99 296.4 99.2402L289.425 82.9132C286.601 76.1846 283.778 69.4555 280.954 62.7269H280.966L280.04 60.5302L266.571 28.4401C262.042 39.1702 257.513 49.901 252.984 60.6311L243.741 82.9132H243.717L236.446 99.9824C234.517 104.435 230.658 107.107 225.909 107.107C219.973 107.107 215.373 102.357 215.373 96.4201C215.373 94.7874 215.967 93.1547 216.709 91.522L252.918 9.73813C255.441 4.09787 260.042 0.684021 266.274 0.684021H267.61C273.843 0.684021 278.295 4.09787 280.818 9.73813L317.027 91.522C317.769 93.1547 318.214 94.639 318.214 96.1232Z" fill="#F66C5E"/>
<path d="M318.214 96.1232C318.214 102.209 313.466 107.107 307.381 107.107C302.039 107.107 298.477 103.99 296.4 99.2402L289.425 82.9132C286.601 76.1846 283.778 69.4555 280.954 62.7269H280.966L280.04 60.5302L266.571 28.4401C262.042 39.1702 257.513 49.901 252.984 60.6311L243.741 82.9132H243.717L236.446 99.9824C234.517 104.435 230.658 107.107 225.909 107.107C219.973 107.107 215.373 102.357 215.373 96.4201C215.373 94.7874 215.967 93.1547 216.709 91.522L252.918 9.73813C255.441 4.09787 260.042 0.684021 266.274 0.684021H267.61C273.843 0.684021 278.295 4.09787 280.818 9.73813L317.027 91.522C317.769 93.1547 318.214 94.639 318.214 96.1232Z" fill="#F7F9F7"/>
<path d="M318.214 96.1232C318.214 102.209 313.466 107.107 307.381 107.107C302.039 107.107 298.477 103.99 296.4 99.2402L289.425 82.9132C286.601 76.1846 283.778 69.4555 280.954 62.7269H280.966L280.04 60.5302L266.571 28.4401C262.042 39.1702 257.513 49.901 252.984 60.6311L243.741 82.9132H243.717L236.446 99.9824C234.517 104.435 230.658 107.107 225.909 107.107C219.973 107.107 215.373 102.357 215.373 96.4201C215.373 94.7874 215.967 93.1547 216.709 91.522L252.918 9.73813C255.441 4.09787 260.042 0.684021 266.274 0.684021H267.61C273.843 0.684021 278.295 4.09787 280.818 9.73813L317.027 91.522C317.769 93.1547 318.214 94.639 318.214 96.1232Z" fill="#4ECDC4"/>
<path d="M318.214 96.1232C318.214 102.209 313.466 107.107 307.381 107.107C302.039 107.107 298.477 103.99 296.4 99.2402L289.425 82.9132C286.601 76.1846 283.778 69.4555 280.954 62.7269H280.966L280.04 60.5302L266.571 28.4401C262.042 39.1702 257.513 49.901 252.984 60.6311L243.741 82.9132H243.717L236.446 99.9824C234.517 104.435 230.658 107.107 225.909 107.107C219.973 107.107 215.373 102.357 215.373 96.4201C215.373 94.7874 215.967 93.1547 216.709 91.522L252.918 9.73813C255.441 4.09787 260.042 0.684021 266.274 0.684021H267.61C273.843 0.684021 278.295 4.09787 280.818 9.73813L317.027 91.522C317.769 93.1547 318.214 94.639 318.214 96.1232Z" fill="#23374A"/>
<path d="M336.635 13.4018C336.635 7.03641 341.669 2.00328 348.036 2.00328H350.405C355.883 2.00328 359.141 4.66788 362.25 8.66477L406.226 66.3977V12.9577C406.226 6.74034 411.26 1.70721 417.479 1.70721C423.697 1.70721 428.732 6.74034 428.732 12.9577V95.4122C428.732 101.778 423.697 106.811 417.33 106.811H416.59C411.112 106.811 407.854 104.146 404.745 100.149L359.141 40.3439V95.8563C359.141 102.074 354.106 107.107 347.888 107.107C341.669 107.107 336.635 102.074 336.635 95.8563V13.4018Z" fill="#F5D95B"/>
<path d="M336.635 13.4018C336.635 7.03641 341.669 2.00328 348.036 2.00328H350.405C355.883 2.00328 359.141 4.66788 362.25 8.66477L406.226 66.3977V12.9577C406.226 6.74034 411.26 1.70721 417.479 1.70721C423.697 1.70721 428.732 6.74034 428.732 12.9577V95.4122C428.732 101.778 423.697 106.811 417.33 106.811H416.59C411.112 106.811 407.854 104.146 404.745 100.149L359.141 40.3439V95.8563C359.141 102.074 354.106 107.107 347.888 107.107C341.669 107.107 336.635 102.074 336.635 95.8563V13.4018Z" fill="#F66C5E"/>
<path d="M336.635 13.4018C336.635 7.03641 341.669 2.00328 348.036 2.00328H350.405C355.883 2.00328 359.141 4.66788 362.25 8.66477L406.226 66.3977V12.9577C406.226 6.74034 411.26 1.70721 417.479 1.70721C423.697 1.70721 428.732 6.74034 428.732 12.9577V95.4122C428.732 101.778 423.697 106.811 417.33 106.811H416.59C411.112 106.811 407.854 104.146 404.745 100.149L359.141 40.3439V95.8563C359.141 102.074 354.106 107.107 347.888 107.107C341.669 107.107 336.635 102.074 336.635 95.8563V13.4018Z" fill="#F7F9F7"/>
<path d="M336.635 13.4018C336.635 7.03641 341.669 2.00328 348.036 2.00328H350.405C355.883 2.00328 359.141 4.66788 362.25 8.66477L406.226 66.3977V12.9577C406.226 6.74034 411.26 1.70721 417.479 1.70721C423.697 1.70721 428.732 6.74034 428.732 12.9577V95.4122C428.732 101.778 423.697 106.811 417.33 106.811H416.59C411.112 106.811 407.854 104.146 404.745 100.149L359.141 40.3439V95.8563C359.141 102.074 354.106 107.107 347.888 107.107C341.669 107.107 336.635 102.074 336.635 95.8563V13.4018Z" fill="#4ECDC4"/>
<path d="M336.635 13.4018C336.635 7.03641 341.669 2.00328 348.036 2.00328H350.405C355.883 2.00328 359.141 4.66788 362.25 8.66477L406.226 66.3977V12.9577C406.226 6.74034 411.26 1.70721 417.479 1.70721C423.697 1.70721 428.732 6.74034 428.732 12.9577V95.4122C428.732 101.778 423.697 106.811 417.33 106.811H416.59C411.112 106.811 407.854 104.146 404.745 100.149L359.141 40.3439V95.8563C359.141 102.074 354.106 107.107 347.888 107.107C341.669 107.107 336.635 102.074 336.635 95.8563V13.4018Z" fill="#23374A"/>
<path d="M253.415 83.1635C253.113 84.4154 252.932 85.731 252.932 87.079C252.932 96.1946 260.746 101.298 266.328 106.914C266.479 107.01 266.6 107.107 266.75 107.107C266.901 107.107 266.962 107.075 267.022 107.043C267.052 107.011 267.112 106.978 267.203 106.947C272.724 101.362 280.66 96.1621 280.66 87.079C280.66 78.9908 274.173 72.3148 266.751 72.3148C260.625 72.3148 255.104 76.8083 253.415 83.1635Z" fill="#F5D95B"/>
<path d="M253.415 83.1635C253.113 84.4154 252.932 85.731 252.932 87.079C252.932 96.1946 260.746 101.298 266.328 106.914C266.479 107.01 266.6 107.107 266.75 107.107C266.901 107.107 266.962 107.075 267.022 107.043C267.052 107.011 267.112 106.978 267.203 106.947C272.724 101.362 280.66 96.1621 280.66 87.079C280.66 78.9908 274.173 72.3148 266.751 72.3148C260.625 72.3148 255.104 76.8083 253.415 83.1635Z" fill="#F66C5E"/>
<path d="M253.415 83.1635C253.113 84.4154 252.932 85.731 252.932 87.079C252.932 96.1946 260.746 101.298 266.328 106.914C266.479 107.01 266.6 107.107 266.75 107.107C266.901 107.107 266.962 107.075 267.022 107.043C267.052 107.011 267.112 106.978 267.203 106.947C272.724 101.362 280.66 96.1621 280.66 87.079C280.66 78.9908 274.173 72.3148 266.751 72.3148C260.625 72.3148 255.104 76.8083 253.415 83.1635Z" fill="#F7F9F7"/>
<path d="M253.415 83.1635C253.113 84.4154 252.932 85.731 252.932 87.079C252.932 96.1946 260.746 101.298 266.328 106.914C266.479 107.01 266.6 107.107 266.75 107.107C266.901 107.107 266.962 107.075 267.022 107.043C267.052 107.011 267.112 106.978 267.203 106.947C272.724 101.362 280.66 96.1621 280.66 87.079C280.66 78.9908 274.173 72.3148 266.751 72.3148C260.625 72.3148 255.104 76.8083 253.415 83.1635Z" fill="#4ECDC4"/>
<path d="M253.415 83.1635C253.113 84.4154 252.932 85.731 252.932 87.079C252.932 96.1946 260.746 101.298 266.328 106.914C266.479 107.01 266.6 107.107 266.75 107.107C266.901 107.107 266.962 107.075 267.022 107.043C267.052 107.011 267.112 106.978 267.203 106.947C272.724 101.362 280.66 96.1621 280.66 87.079C280.66 78.9908 274.173 72.3148 266.751 72.3148C260.625 72.3148 255.104 76.8083 253.415 83.1635Z" fill="#23374A"/>
</svg>
