<svg id="Layer_1" data-name="Layer 1" xmlns="http://www.w3.org/2000/svg" viewBox="0 0 471.93 470.37"><defs><style>.cls-1{fill:#ee4623;}.cls-2{fill:#0c8040;}.cls-3{fill:#017490;}.cls-4{fill:#221f1f;}</style></defs><title>hub-spoke</title><path class="cls-1" d="M269.81,522.59l-2.12-1.76,7.06-8.5,2.13,1.77Zm109-31.6-2.72-.47,6.26-35.79,2.72.48Zm-78.36-5.22L298.3,484l5.89-7.08,2.12,1.76Zm12.95-15.58-2.12-1.77,23.55-28.33,2.12,1.77Zm73.57-25.87-2.72-.48,1.59-9.07,2.72.48Zm-44.13-9.55L340.68,433l7.07-8.5,2.12,1.77ZM394.88,399l-2.73-.48,1.91-10.88,2.72.48Zm-21.46-1-2.13-1.77,5.89-7.08,2.13,1.76Zm12.95-15.58-2.12-1.77,17.53-21.09L398.37,379l-2.72-.47,1.62-9.27Z" transform="translate(-154.4 -86.31)"/><path class="cls-2" d="M181.39,371.91l-.08-2.76,11.05-.32.08,2.77Zm47.87-1.35-.08-2.76,9.21-.26.08,2.76Zm20.25-.57-.07-2.76,36.82-1,.08,2.76Zm46-1.3-.07-2.76,11-.31.08,2.76Zm47.87-1.35-.07-2.76,9.2-.26.08,2.77Zm20.26-.57-.08-2.76,35.89-1v.41l1.62.47-.54,1.86Zm40-11.74-2.65-.77,3.09-10.61,2.65.77Zm13.38-46-2.65-.77,2.57-8.84,2.66.77Zm5.66-19.45-2.65-.77,10.3-35.37,2.65.77Zm12.87-44.21-2.65-.77L436,234l2.65.78Zm13.38-46-2.65-.78,2.57-8.84,2.66.77ZM454.64,180l-2.66-.77,10.3-35.37,2.65.77Zm12.86-44.21-2.65-.77,3.09-10.61,2.65.77Z" transform="translate(-154.4 -86.31)"/><path class="cls-3" d="M402.18,363.23l-5-1.85.5-1.36-3.18-6.85L397,352Zm-13.68-5L353.93,345.5l.95-2.6,34.58,12.71Zm-44.95-16.53-8.64-3.17.95-2.6,8.65,3.18ZM300.33,325.8,290,322l1-2.59,10.38,3.81ZM379,319.75l-3.87-8.36,2.51-1.16,3.87,8.35Zm-8.51-18.39L355,267.93l2.51-1.16L373,300.2Zm-19.35-41.78-4.64-10,2.5-1.16,4.65,10ZM331,216.12l-3.87-8.35,2.5-1.17,3.87,8.36Zm-8.52-18.38-4.26-9.2,2.51-1.16,4.26,9.2Z" transform="translate(-154.4 -86.31)"/><rect class="cls-4" x="504.01" y="256.4" width="5.53" height="2.76" transform="translate(-188.78 345.92) rotate(-44.83)"/><path class="cls-4" d="M462,304.26l-2-2,17.19-17.08,2,2Zm22.34-22.2-1.95-2,4.3-4.27,1.94,2Z" transform="translate(-154.4 -86.31)"/><path class="cls-4" d="M408.71,357.2l-1.95-2,17.18-17.08,1.95,2ZM431.05,335l-1.95-2,4.29-4.27,1.95,2Zm21.47-21.35-1.94-2,5.15-5.12,1.95,2Z" transform="translate(-154.4 -86.31)"/><polygon class="cls-4" points="241.29 279.93 248.07 273.2 250.01 275.16 248.95 276.21 250.44 276.03 250.77 278.77 241.29 279.93"/><path class="cls-4" d="M437,361.2l-.33-2.74,8-1,.33,2.74Zm17.53-2.13-.33-2.74,31.87-3.88.33,2.74Z" transform="translate(-154.4 -86.31)"/><path class="cls-4" d="M494.41,354.22l-.34-2.74,9.56-1.17.34,2.74Zm41.43-5.05-.34-2.74,8-1,.33,2.74ZM553.36,347l-.33-2.75,31.87-3.88.33,2.75Z" transform="translate(-154.4 -86.31)"/><rect class="cls-4" x="593.01" y="339.1" width="5.53" height="2.76" transform="translate(-191.25 -11.64) rotate(-6.96)"/><path class="cls-3" d="M491,531.19,476.33,505l2.42-1.35,14.61,26.22Zm-20-35.86-4.48-8.05,2.41-1.34,4.48,8Zm-22.42-40.22-5.39-9.65,2.42-1.35,5.38,9.65Zm-9.87-17.7-17.94-32.17,2.41-1.35,17.94,32.18Zm87.53-22.58-10.31-4,1-2.58,10.31,4Zm-44.67-17.27-8.59-3.32,1-2.58,8.59,3.33Zm-66.18-2-4.49-8,2.42-1.34,4.48,8Zm47.28-5.33L428.27,377l1-2.58,34.36,13.28Zm-42.94-16.61-10.31-4,1-2.58,10.31,4Z" transform="translate(-154.4 -86.31)"/><circle class="cls-4" cx="114.41" cy="435.4" r="17.5"/><path class="cls-4" d="M268.81,548.15a26.44,26.44,0,1,1,26.44-26.44A26.47,26.47,0,0,1,268.81,548.15Zm0-49.88a23.44,23.44,0,1,0,23.44,23.44A23.46,23.46,0,0,0,268.81,498.27Z" transform="translate(-154.4 -86.31)"/><circle class="cls-3" cx="27.02" cy="284.22" r="17.5"/><path class="cls-3" d="M181.42,397.54a27,27,0,1,1,27-27A27,27,0,0,1,181.42,397.54Zm0-51a24,24,0,1,0,24,24A24,24,0,0,0,181.42,346.51Z" transform="translate(-154.4 -86.31)"/><circle class="cls-2" cx="136.1" cy="234.38" r="17.5"/><circle class="cls-1" cx="162.3" cy="101.65" r="17.5"/><path class="cls-1" d="M316.7,213.75A25.79,25.79,0,1,1,342.49,188,25.82,25.82,0,0,1,316.7,213.75Zm0-48.58A22.79,22.79,0,1,0,339.49,188,22.82,22.82,0,0,0,316.7,165.17Z" transform="translate(-154.4 -86.31)"/><circle class="cls-4" cx="525.83" cy="413.54" r="17.5" transform="translate(-272.63 146.4) rotate(-22.5)"/><circle class="cls-3" cx="223.08" cy="404.44" r="17.5"/><circle class="cls-4" cx="318.48" cy="26.23" r="17.5"/><path class="cls-4" d="M472.88,138.76a26.23,26.23,0,1,1,26.23-26.22A26.26,26.26,0,0,1,472.88,138.76Zm0-49.45a23.23,23.23,0,1,0,23.23,23.23A23.26,23.26,0,0,0,472.88,89.31Z" transform="translate(-154.4 -86.31)"/><circle class="cls-2" cx="508.33" cy="256.18" r="17.5" transform="translate(-77.28 541.48) rotate(-67.5)"/><circle class="cls-3" cx="444.18" cy="253.68" r="17.5"/><path class="cls-3" d="M598.58,367.74A27.75,27.75,0,1,1,626.33,340,27.78,27.78,0,0,1,598.58,367.74Zm0-52.5A24.75,24.75,0,1,0,623.33,340,24.79,24.79,0,0,0,598.58,315.24Z" transform="translate(-154.4 -86.31)"/><circle class="cls-1" cx="336.43" cy="444.21" r="17.5"/><path class="cls-1" d="M490.84,556.68A26.16,26.16,0,1,1,517,530.52,26.19,26.19,0,0,1,490.84,556.68Zm0-49.31A23.16,23.16,0,1,0,514,530.52,23.18,23.18,0,0,0,490.84,507.37Z" transform="translate(-154.4 -86.31)"/><circle class="cls-4" cx="245.18" cy="274.47" r="41.57"/><path class="cls-4" d="M399.59,414.48a53.7,53.7,0,1,1,53.69-53.7A53.76,53.76,0,0,1,399.59,414.48Zm0-104.39a50.7,50.7,0,1,0,50.69,50.69A50.75,50.75,0,0,0,399.59,310.09Z" transform="translate(-154.4 -86.31)"/></svg>